<svg xmlns="http://www.w3.org/2000/svg" xmlns:xlink="http://www.w3.org/1999/xlink" width="918.643" height="134" viewBox="0 0 918.643 134">
  <defs>
    <filter id="Union_6" x="457.353" y="0" width="461.289" height="134" filterUnits="userSpaceOnUse">
      <feOffset input="SourceAlpha"/>
      <feGaussianBlur stdDeviation="5" result="blur"/>
      <feFlood flood-opacity="0.161"/>
      <feComposite operator="in" in2="blur"/>
      <feComposite in="SourceGraphic"/>
    </filter>
    <filter id="Subtraction_4" x="0" y="0.002" width="522.875" height="133.998" filterUnits="userSpaceOnUse">
      <feOffset input="SourceAlpha"/>
      <feGaussianBlur stdDeviation="5" result="blur-2"/>
      <feFlood flood-opacity="0.161"/>
      <feComposite operator="in" in2="blur-2"/>
      <feComposite in="SourceGraphic"/>
    </filter>
  </defs>
  <g id="Group_1311" data-name="Group 1311" transform="translate(-933.357 -166)">
    <g id="Group_1214" data-name="Group 1214" transform="translate(-6706.649 -3552)">
      <g transform="matrix(1, 0, 0, 1, 7640.01, 3718)" filter="url(#Union_6)">
        <path id="Union_6-2" data-name="Union 6" d="M56.722,104H54.843L1.608,55.535a4.69,4.69,0,0,1,0-7.071L54.842,0H418.289a13,13,0,0,1,13,13V91a13,13,0,0,1-13,13Z" transform="translate(472.35 15)" fill="#fff"/>
      </g>
      <text id="درخواستهای_من" data-name="درخواستهای من" transform="translate(8448.649 3796)" fill="#1665c7" font-size="45" font-family="IRANSansMobileNoEn, IRAN SansMobileNoEn"><tspan x="-284.948" y="0">درخواستهای من</tspan></text>
      <path id="Path_204" data-name="Path 204" d="M8437.151,3768.8v33.143" transform="translate(31.649)" fill="none" stroke="rgba(70,105,148,0.49)" stroke-width="1"/>
      <g id="_7100206_paper_file_document_resume_receipt_icon" data-name="7100206_paper_file_document_resume_receipt_icon" transform="translate(8480.649 3768)">
        <path id="Path_205" data-name="Path 205" d="M63.7,40.52H40.143a3.342,3.342,0,0,0-3.319,3H31.579A.479.479,0,0,0,31.1,44V64.028a3.341,3.341,0,0,0,3.337,3.336h8.079v7.1a.479.479,0,0,0,.479.479H66.553a.479.479,0,0,0,.479-.479V43.857A3.341,3.341,0,0,0,63.7,40.52ZM32.063,64.028V44.485h4.744V64.028a2.372,2.372,0,1,1-4.745,0ZM36.777,66.4a3.327,3.327,0,0,0,.994-2.373V43.857a2.373,2.373,0,1,1,4.745,0V66.4Zm29.294,7.583H43.479V43.857a3.324,3.324,0,0,0-.994-2.373H63.7a2.376,2.376,0,0,1,2.373,2.373Z" transform="translate(-31.1 -40.52)" fill="#0f4b95"/>
        <path id="Path_206" data-name="Path 206" d="M239.649,130.62h-16.2a.482.482,0,1,0,0,.963h16.2a.482.482,0,1,0,0-.963Z" transform="translate(-207.642 -123.422)" fill="#0f4b95"/>
        <path id="Path_207" data-name="Path 207" d="M239.649,184.19h-16.2a.482.482,0,0,0,0,.963h16.2a.482.482,0,1,0,0-.963Z" transform="translate(-207.642 -172.713)" fill="#0f4b95"/>
        <path id="Path_208" data-name="Path 208" d="M239.649,237.76h-16.2a.482.482,0,1,0,0,.963h16.2a.482.482,0,1,0,0-.963Z" transform="translate(-207.642 -222.003)" fill="#0f4b95"/>
        <path id="Path_209" data-name="Path 209" d="M239.649,291.34h-16.2a.482.482,0,1,0,0,.963h16.2a.482.482,0,1,0,0-.963Z" transform="translate(-207.642 -271.303)" fill="#0f4b95"/>
        <path id="Path_210" data-name="Path 210" d="M234.016,344.92H223.443a.482.482,0,1,0,0,.965h10.574a.482.482,0,0,0,0-.963Z" transform="translate(-207.633 -320.603)" fill="#0f4b95"/>
      </g>
    </g>
    <g transform="matrix(1, 0, 0, 1, 933.36, 166)" filter="url(#Subtraction_4)">
      <path id="Subtraction_4-2" data-name="Subtraction 4" d="M-22002.127-20639h-437.312l-53.932-48.467A4.723,4.723,0,0,1-22495-20691a4.722,4.722,0,0,1,1.631-3.537l53.932-48.463,41.643,0h395.668l-53.932,48.461a4.723,4.723,0,0,0-1.629,3.537,4.718,4.718,0,0,0,1.629,3.531l53.932,48.465Z" transform="translate(22510 20758)" fill="#fff"/>
    </g>
    <g id="Group_1217" data-name="Group 1217" transform="translate(-6)">
      <text id="جزئیات_درخواست" data-name="جزئیات درخواست" transform="translate(1315 244)" fill="#1665c7" font-size="45" font-family="IRANSansMobileNoEn, IRAN SansMobileNoEn"><tspan x="-321.496" y="0">جزئیات درخواست</tspan></text>
      <path id="Path_479" data-name="Path 479" d="M8437.151,3768.8v33.143" transform="translate(-7110 -3552)" fill="none" stroke="rgba(70,105,148,0.49)" stroke-width="1"/>
      <g id="_7100206_paper_file_document_resume_receipt_icon-2" data-name="7100206_paper_file_document_resume_receipt_icon" transform="translate(1307.9 175.48)">
        <path id="Path_205-2" data-name="Path 205" d="M63.7,40.52H40.143a3.342,3.342,0,0,0-3.319,3H31.579A.479.479,0,0,0,31.1,44V64.028a3.341,3.341,0,0,0,3.337,3.336h8.079v7.1a.479.479,0,0,0,.479.479H66.553a.479.479,0,0,0,.479-.479V43.857A3.341,3.341,0,0,0,63.7,40.52ZM32.063,64.028V44.485h4.744V64.028a2.372,2.372,0,1,1-4.745,0ZM36.777,66.4a3.327,3.327,0,0,0,.994-2.373V43.857a2.373,2.373,0,1,1,4.745,0V66.4Zm29.294,7.583H43.479V43.857a3.324,3.324,0,0,0-.994-2.373H63.7a2.376,2.376,0,0,1,2.373,2.373Z" transform="translate(0 0)" fill="#0f4b95"/>
        <path id="Path_206-2" data-name="Path 206" d="M239.649,130.62h-16.2a.482.482,0,1,0,0,.963h16.2a.482.482,0,1,0,0-.963Z" transform="translate(-176.542 -82.902)" fill="#0f4b95"/>
        <path id="Path_207-2" data-name="Path 207" d="M239.649,184.19h-16.2a.482.482,0,0,0,0,.963h16.2a.482.482,0,1,0,0-.963Z" transform="translate(-176.542 -132.193)" fill="#0f4b95"/>
        <path id="Path_208-2" data-name="Path 208" d="M239.649,237.76h-16.2a.482.482,0,1,0,0,.963h16.2a.482.482,0,1,0,0-.963Z" transform="translate(-176.542 -181.483)" fill="#0f4b95"/>
        <path id="Path_209-2" data-name="Path 209" d="M239.649,291.34h-16.2a.482.482,0,1,0,0,.963h16.2a.482.482,0,1,0,0-.963Z" transform="translate(-176.542 -230.783)" fill="#0f4b95"/>
        <path id="Path_210-2" data-name="Path 210" d="M234.016,344.92H223.443a.482.482,0,1,0,0,.965h10.574a.482.482,0,0,0,0-.963Z" transform="translate(-176.533 -280.083)" fill="#0f4b95"/>
      </g>
    </g>
  </g>
</svg>
