<svg width="512" height="512" xmlns="http://www.w3.org/2000/svg" xml:space="preserve" version="1.1">

 <g>
  <title>Layer 1</title>
  <path id="svg_1" fill="#00707e" d="m469.779,109.899l-427.558,0c-18.891,0 -34.205,15.314 -34.205,34.205l0,171.023c0,18.891 15.314,34.205 34.205,34.205l153.936,0l-0.003,0.003l47.757,47.757c6.678,6.68 17.507,6.68 24.186,0l47.757,-47.757l-0.003,-0.003l153.928,0c18.891,0 34.205,-15.314 34.205,-34.205l0,-171.024c-0.001,-18.89 -15.315,-34.204 -34.205,-34.204z"/>
  <path id="svg_2" d="m468.779,101.882l-427.558,0c-23.28,0 -42.221,18.941 -42.221,42.221l0,171.023c0,23.28 18.941,42.221 42.221,42.221l150.608,0l45.412,45.413c4.744,4.744 11.052,7.357 17.762,7.357c6.709,0 13.018,-2.612 17.762,-7.357l45.413,-45.413l150.601,0c23.28,0 42.221,-18.941 42.221,-42.221l0,-171.023c0,-23.28 -18.941,-42.221 -42.221,-42.221zm26.188,213.244c0,14.44 -11.748,26.188 -26.188,26.188l-153.928,0c-2.25,0 -4.345,0.942 -5.832,2.518l-47.59,47.59c-1.716,1.716 -3.998,2.662 -6.425,2.662s-4.708,-0.945 -6.424,-2.662l-47.549,-47.549c-1.49,-1.603 -3.603,-2.561 -5.874,-2.561l-153.936,0c-14.44,0 -26.188,-11.748 -26.188,-26.188l0,-171.022c0,-14.44 11.748,-26.188 26.188,-26.188l427.557,0c14.44,0 26.188,11.748 26.188,26.188l0,171.024l0.001,0z"/>
  <g id="svg_7"/>
  <g id="svg_8"/>
  <g id="svg_9"/>
  <g id="svg_10"/>
  <g id="svg_11"/>
  <g id="svg_12"/>
  <g id="svg_13"/>
  <g id="svg_14"/>
  <g id="svg_15"/>
  <g id="svg_16"/>
  <g id="svg_17"/>
  <g id="svg_18"/>
  <g id="svg_19"/>
  <g id="svg_20"/>
  <g id="svg_21"/>
  <text font-style="italic" xml:space="preserve" text-anchor="start" font-family="'Alumni Sans'" font-size="100" stroke-width="0" fill="#eff6f7" id="svg_23" y="256" x="143">همیار</text>
 </g>
</svg>