<svg xmlns="http://www.w3.org/2000/svg" width="74.962" height="52.776" viewBox="0 0 74.962 52.776">
  <g id="Group_164" data-name="Group 164" transform="translate(-1574.85 -817.598)">
    <g id="Layer_2" transform="translate(1584.891 827.646)">
      <g id="Group_161" data-name="Group 161" transform="translate(-8.887 9.529) rotate(-30)">
        <path id="Path_112" data-name="Path 112" d="M0,5.493A18.438,18.438,0,0,1,2.1,0" transform="translate(0.309 9.258)" fill="none" stroke="#60b967" stroke-linecap="round" stroke-linejoin="round" stroke-miterlimit="10" stroke-width="1.6"/>
        <path id="Path_113" data-name="Path 113" d="M9.073,2.53A18.524,18.524,0,1,1,0,20.182" fill="none" stroke="#60b967" stroke-linecap="round" stroke-linejoin="round" stroke-miterlimit="10" stroke-width="1.6"/>
        <path id="Path_114" data-name="Path 114" d="M24.873,18.084a12.952,12.952,0,1,1-.247-10.8" transform="translate(5.493 5.555)" fill="none" stroke="#60b967" stroke-linecap="round" stroke-linejoin="round" stroke-miterlimit="10" stroke-width="1.6"/>
        <path id="Path_115" data-name="Path 115" d="M.185,0A15.931,15.931,0,0,1,.432,2.469,11.752,11.752,0,0,1,0,5.8" transform="translate(30.983 16.047)" fill="none" stroke="#60b967" stroke-linecap="round" stroke-linejoin="round" stroke-miterlimit="10" stroke-width="1.6"/>
        <path id="Path_116" data-name="Path 116" d="M6.947,0,0,5.235,3.031,9.257" transform="translate(13.691 15.246) rotate(-23)" fill="none" stroke="#60b967" stroke-linecap="round" stroke-linejoin="round" stroke-miterlimit="10" stroke-width="1.6"/>
      </g>
    </g>
    <g id="Group_162" data-name="Group 162" transform="translate(129.858 467.141)">
      <path id="Path_100" data-name="Path 100" d="M32.1,29.8,16.9,36.6a1.8,1.8,0,0,0,.4,3.4l4.6.9a1.7,1.7,0,0,1,1.4,1.4l.9,4.6a1.8,1.8,0,0,0,3.4.4l6.8-15.2A1.7,1.7,0,0,0,32.1,29.8Z" transform="translate(1459.835 355.7) rotate(-45)" fill="none" stroke="#60b967" stroke-miterlimit="10" stroke-width="2"/>
      <g id="Layer_2-2" data-name="Layer_2" transform="translate(1416.244 568.683)">
        <g id="Group_152" data-name="Group 152" transform="translate(77.9 -204.8)">
          <line id="Line_65" data-name="Line 65" y1="2" transform="translate(11.1 0)" fill="none" stroke="#60b967" stroke-linecap="round" stroke-linejoin="round" stroke-miterlimit="10" stroke-width="2"/>
          <line id="Line_66" data-name="Line 66" y1="8.9" transform="translate(11.1 8.1)" fill="none" stroke="#60b967" stroke-linecap="round" stroke-linejoin="round" stroke-miterlimit="10" stroke-width="2"/>
          <path id="Path_102" data-name="Path 102" d="M20.9,56.8A14.365,14.365,0,0,0,32,42.8v-.4" transform="translate(-20.9 -19.2)" fill="none" stroke="#60b967" stroke-linecap="round" stroke-linejoin="round" stroke-miterlimit="10" stroke-width="2"/>
        </g>
      </g>
    </g>
  </g>
</svg>
