<svg xmlns="http://www.w3.org/2000/svg" width="71.354" height="51.992" viewBox="0 0 71.354 51.992">
  <g id="Group_158" data-name="Group 158" transform="translate(-1448.6 -350.693)">
    <g id="Group_150" data-name="Group 150" transform="translate(10 7)">
      <path id="Line_41" data-name="Line 41" d="M0,1.3A1,1,0,0,1-.991.435,1,1,0,0,1-.135-.691l2.2-.3a1,1,0,0,1,1.126.856A1,1,0,0,1,2.335.991l-2.2.3A1.009,1.009,0,0,1,0,1.3Z" transform="translate(1441.2 376.427)" fill="#f99c0f"/>
      <path id="Path_88" data-name="Path 88" d="M15.5,41.3a1,1,0,0,1-.48-.123l-4.837-2.647-5.029,2.56A1,1,0,0,1,3.716,40.02l1.005-5.484L1.793,31.607a1,1,0,1,1,1.414-1.414l3.3,3.3a1,1,0,0,1,.277.887l-.735,4.011,3.7-1.883a1,1,0,0,1,.934.014l3.5,1.913-.662-3.971a1,1,0,0,1,.3-.888l2.923-2.791-3.981-.6A1,1,0,0,1,12,29.627l-1.733-3.666-.973,1.9a1,1,0,1,1-1.779-.914l1.9-3.7a1,1,0,0,1,1.794.029l2.372,5.018,5.472.821a1,1,0,0,1,.542,1.712l-4.017,3.834.913,5.478A1,1,0,0,1,15.5,41.3Z" transform="translate(1437.1 347.127)" fill="#f99c0f"/>
    </g>
    <g id="Group_149" data-name="Group 149">
      <path id="Path_89" data-name="Path 89" d="M37.3,41.3a1,1,0,0,1-.473-.119l-4.935-2.65L26.96,41.088a1,1,0,0,1-1.444-1.068l1.005-5.484-.629-.629a1,1,0,0,1,1.414-1.414l1,1a1,1,0,0,1,.277.887l-.732,3.992,3.588-1.86a1,1,0,0,1,.933.007l3.606,1.936-.665-3.991a1,1,0,0,1,.3-.888l2.923-2.791-3.981-.6a1,1,0,0,1-.756-.562l-1.737-3.675L30.188,29.56a1,1,0,0,1-.756.531l-4.1.547a1,1,0,0,1-1.64,1.069l-1.1-1.1a1,1,0,0,1,.575-1.7l5.484-.731,2.56-4.938A1,1,0,0,1,33,23.273l2.372,5.018,5.472.821a1,1,0,0,1,.542,1.712l-4.017,3.834.913,5.478A1,1,0,0,1,37.3,41.3Z" transform="translate(1437.1 337.127)" fill="#f99c0f"/>
    </g>
    <g id="Group_148" data-name="Group 148" transform="translate(-9 7)">
      <path id="Path_90" data-name="Path 90" d="M48.3,41.2a1,1,0,0,1-.985-1.181l1.005-5.484-3.929-3.929a1,1,0,0,1,.575-1.7l5.475-.73,2.463-4.926a1,1,0,0,1,1.792.007l2.469,5.029,5.482.822a1,1,0,0,1,.516,1.736l-.9.8a1,1,0,0,1-1.662-.821l-4.251-.638a1,1,0,0,1-.749-.548l-1.811-3.688-1.8,3.595a1,1,0,0,1-.762.544l-3.994.533,2.869,2.869a1,1,0,0,1,.277.887l-1.1,6A1,1,0,0,1,48.3,41.2Z" transform="translate(1437.1 347.127)" fill="#f99c0f"/>
      <path id="Path_91" data-name="Path 91" d="M59.1,41.3a1,1,0,0,1-.473-.119l-4.9-2.631-.513.308a1,1,0,0,1-1.029-1.715l1-.6a1,1,0,0,1,.988-.024l3.606,1.936-.665-3.991a1,1,0,0,1,.279-.872l1.1-1.1a1,1,0,0,1,1.414,1.414l-.736.736.915,5.492A1,1,0,0,1,59.1,41.3Z" transform="translate(1437.1 347.127)" fill="#f99c0f"/>
    </g>
    <path id="Path_100" data-name="Path 100" d="M32.1,29.8,16.9,36.6a1.8,1.8,0,0,0,.4,3.4l4.6.9a1.7,1.7,0,0,1,1.4,1.4l.9,4.6a1.8,1.8,0,0,0,3.4.4l6.8-15.2A1.7,1.7,0,0,0,32.1,29.8Z" transform="translate(1459.835 355.7) rotate(-45)" fill="none" stroke="#f99c0f" stroke-miterlimit="10" stroke-width="2"/>
    <g id="Layer_2" transform="translate(1416.244 568.683)">
      <g id="Group_152" data-name="Group 152" transform="translate(77.9 -204.8)">
        <line id="Line_65" data-name="Line 65" y1="2" transform="translate(11.1 0)" fill="none" stroke="#f99c0f" stroke-linecap="round" stroke-linejoin="round" stroke-miterlimit="10" stroke-width="2"/>
        <line id="Line_66" data-name="Line 66" y1="8.9" transform="translate(11.1 8.1)" fill="none" stroke="#f99c0f" stroke-linecap="round" stroke-linejoin="round" stroke-miterlimit="10" stroke-width="2"/>
        <path id="Path_102" data-name="Path 102" d="M20.9,56.8A14.365,14.365,0,0,0,32,42.8v-.4" transform="translate(-20.9 -19.2)" fill="none" stroke="#f99c0f" stroke-linecap="round" stroke-linejoin="round" stroke-miterlimit="10" stroke-width="2"/>
      </g>
    </g>
  </g>
</svg>
