<svg xmlns="http://www.w3.org/2000/svg" width="26" height="26" viewBox="0 0 26 26">
  <g id="Group_171" data-name="Group 171" transform="translate(-790 -629)">
    <g id="Rectangle_217" data-name="Rectangle 217" transform="translate(790 629)" fill="none" stroke="#000" stroke-width="1.5">
      <rect width="26" height="26" rx="5" stroke="none"/>
      <rect x="0.75" y="0.75" width="24.5" height="24.5" rx="4.25" fill="none"/>
    </g>
    <g id="_4634453___add_interface_plus_ui_icon_1_" data-name="4634453_+_add_interface_plus_ui_icon (1)" transform="translate(788.5 627.5)">
      <g id="Group_169" data-name="Group 169" transform="translate(13.604 8)">
        <g id="Path_122" data-name="Path 122" transform="translate(-15 -8)" fill="none">
          <path d="M15.9,21a.857.857,0,0,1-.9-.812V8.812a.9.9,0,0,1,1.793,0V20.188A.857.857,0,0,1,15.9,21Z" stroke="none"/>
          <path d="M 15.89635467529297 21 C 15.40090465545654 21 15.00000476837158 20.63660049438477 15.00000476837158 20.1875 L 15.00000476837158 8.8125 C 15.00000476837158 8.363400459289551 15.40090465545654 8 15.89635467529297 8 C 16.39180374145508 8 16.79270553588867 8.363400459289551 16.79270553588867 8.8125 L 16.79270553588867 20.1875 C 16.79270553588867 20.63656997680664 16.39176559448242 21 15.89635467529297 21 Z" stroke="none" fill="#000"/>
        </g>
      </g>
      <g id="Group_170" data-name="Group 170" transform="translate(8 13.604)">
        <g id="Path_123" data-name="Path 123" transform="translate(-8 -15)" fill="none">
          <path d="M20.188,16.793H8.812a.9.9,0,0,1,0-1.793H20.188a.9.9,0,0,1,0,1.793Z" stroke="none"/>
          <path d="M 20.1875 16.79270553588867 L 8.8125 16.79270553588867 C 8.363400459289551 16.79270553588867 8 16.39180374145508 8 15.89635467529297 C 8 15.40090465545654 8.363400459289551 15.00000476837158 8.8125 15.00000476837158 L 20.1875 15.00000476837158 C 20.63660049438477 15.00000476837158 21 15.40090465545654 21 15.89635467529297 C 21 16.39180374145508 20.63656997680664 16.79270553588867 20.1875 16.79270553588867 Z" stroke="none" fill="#000"/>
        </g>
      </g>
    </g>
  </g>
</svg>
