<svg xmlns="http://www.w3.org/2000/svg" width="18.659" height="19" viewBox="0 0 18.659 19">
  <g id="_7148724_sort_filter_filtering_filters_icon" data-name="7148724_sort_filter_filtering_filters_icon" transform="translate(18.659) rotate(90)">
    <path id="Path_441" data-name="Path 441" d="M4.858,19.219a.688.688,0,0,1-.688-.688V1.248a.688.688,0,0,1,1.377,0V18.53A.688.688,0,0,1,4.858,19.219Z" transform="translate(-2.011 -0.56)"/>
    <path id="Path_442" data-name="Path 442" d="M5.256,26.287H.938a.688.688,0,1,1,0-1.377H5.256a.688.688,0,1,1,0,1.377Z" transform="translate(-0.25 -11.5)"/>
    <path id="Path_443" data-name="Path 443" d="M29.018,19.219a.688.688,0,0,1-.688-.688V1.248a.688.688,0,0,1,1.377,0V18.53A.688.688,0,0,1,29.018,19.219Z" transform="translate(-12.865 -0.56)"/>
    <path id="Path_444" data-name="Path 444" d="M29.416,26.287H25.1a.688.688,0,1,1,0-1.377h4.318a.688.688,0,1,1,0,1.377Z" transform="translate(-11.104 -11.5)"/>
    <path id="Path_445" data-name="Path 445" d="M16.938,19.219a.688.688,0,0,1-.688-.688V1.248a.688.688,0,0,1,1.377,0V18.53A.688.688,0,0,1,16.938,19.219Z" transform="translate(-7.438 -0.56)"/>
    <path id="Path_446" data-name="Path 446" d="M17.336,8.967H13.018a.688.688,0,1,1,0-1.377h4.318a.688.688,0,1,1,0,1.377Z" transform="translate(-5.677 -3.718)"/>
  </g>
</svg>
