<?xml version="1.0" ?><svg data-name="Layer 10" id="Layer_10" viewBox="0 0 50 50" xmlns="http://www.w3.org/2000/svg"><defs><style>.cls-1{fill:#010101;}</style></defs><title/><path class="cls-1" d="M25,2A17.2,17.2,0,0,0,8,19a16.8,16.8,0,0,0,5.6,12.1c4,4.3,9.6,15.6,9.6,15.7a2,2,0,0,0,3.6,0c0.1-.1,5.7-11.4,9.6-15.7A16.8,16.8,0,0,0,42,19,17.2,17.2,0,0,0,25,2Zm8.6,26.3H33.5c-2.9,3.1-6.5,9.4-8.5,13.3-2.1-3.9-5.6-10.1-8.5-13.3H16.4A12.8,12.8,0,0,1,12,19,13.2,13.2,0,0,1,25,6,13.2,13.2,0,0,1,38,19,12.8,12.8,0,0,1,33.6,28.3Z"/><path class="cls-1" d="M25,11a6.5,6.5,0,1,0,6.5,6.5A6.5,6.5,0,0,0,25,11Zm0,9a2.5,2.5,0,1,1,2.5-2.5A2.5,2.5,0,0,1,25,20Z"/></svg>