<svg xmlns="http://www.w3.org/2000/svg" width="17.714" height="17.714" viewBox="0 0 17.714 17.714">
  <g id="_1" data-name="1" transform="translate(-54.14 -48)">
    <path id="Path_459" data-name="Path 459" d="M67.794,65.714a.661.661,0,0,1-.5-.226L63.806,61.5H56.982a2.846,2.846,0,0,1-2.842-2.843V50.843A2.846,2.846,0,0,1,56.982,48H69.011a2.846,2.846,0,0,1,2.842,2.843v7.813A2.846,2.846,0,0,1,69.011,61.5h-.557v3.554A.661.661,0,0,1,67.794,65.714ZM56.982,49.322a1.522,1.522,0,0,0-1.52,1.521v7.813a1.522,1.522,0,0,0,1.52,1.521h7.123a.661.661,0,0,1,.5.226l2.53,2.892V60.837a.661.661,0,0,1,.661-.661h1.216a1.522,1.522,0,0,0,1.52-1.521V50.843a1.522,1.522,0,0,0-1.518-1.521Z" transform="translate(0)" fill="#666"/>
    <path id="Path_460" data-name="Path 460" d="M185.262,235.325a.667.667,0,0,1-.468-.193c-.015-.015-.03-.032-.044-.048a.628.628,0,0,1-.038-.052.6.6,0,0,1-.033-.056c-.01-.019-.019-.039-.028-.059s-.015-.041-.022-.061-.011-.044-.016-.063a.621.621,0,0,1-.01-.064.651.651,0,0,1,0-.065.638.638,0,0,1,0-.065c0-.022.006-.044.01-.064a.536.536,0,0,1,.016-.063c.006-.019.014-.041.022-.061s.018-.039.028-.058.021-.038.033-.056.025-.035.038-.052a.637.637,0,0,1,.044-.048.668.668,0,0,1,.532-.19c.022,0,.044.006.064.01a.542.542,0,0,1,.063.016c.019.006.041.014.061.022s.039.018.058.028.038.021.056.033a.632.632,0,0,1,.052.038.567.567,0,0,1,.048.044c.015.015.03.032.044.048a.6.6,0,0,1,.038.052.637.637,0,0,1,.033.056q.015.029.028.058c.008.02.015.041.022.061a.614.614,0,0,1,.016.063c0,.021.008.044.01.064a.633.633,0,0,1,0,.065.465.465,0,0,1,0,.065c0,.021-.006.044-.01.064a.591.591,0,0,1-.016.063c-.006.019-.014.041-.022.061s-.018.04-.028.059-.021.037-.033.056-.025.035-.038.052a.573.573,0,0,1-.044.048c-.015.015-.031.03-.048.044a.613.613,0,0,1-.052.038c-.018.012-.037.023-.056.033s-.038.019-.058.028-.041.015-.061.022a.629.629,0,0,1-.063.016c-.021,0-.044.007-.064.01A.608.608,0,0,1,185.262,235.325Z" transform="translate(-124.711 -177.807)" fill="#666"/>
    <path id="Path_461" data-name="Path 461" d="M296.291,235.305a.452.452,0,0,1-.065,0l-.064-.01a.585.585,0,0,1-.063-.016c-.019-.006-.041-.014-.061-.022s-.039-.018-.058-.028a.631.631,0,0,1-.056-.033c-.018-.012-.035-.025-.052-.038s-.033-.029-.048-.044-.03-.032-.044-.048a.6.6,0,0,1-.038-.052.648.648,0,0,1-.033-.056q-.015-.029-.028-.058c-.008-.02-.015-.041-.022-.061s-.011-.044-.016-.063a.588.588,0,0,1-.01-.064.638.638,0,0,1,0-.065.462.462,0,0,1,0-.065c0-.021.006-.044.01-.064a.591.591,0,0,1,.016-.063c.006-.019.014-.041.022-.061s.018-.04.028-.059.021-.037.033-.055a.622.622,0,0,1,.038-.052c.014-.017.029-.033.044-.048s.032-.03.048-.044a.6.6,0,0,1,.052-.038.631.631,0,0,1,.056-.033l.058-.028c.02-.008.041-.015.061-.022s.044-.011.063-.016a.586.586,0,0,1,.064-.01.706.706,0,0,1,.13,0c.021,0,.044.006.064.01a.6.6,0,0,1,.063.016c.019.006.041.014.061.022s.039.018.058.028a.64.64,0,0,1,.056.033c.018.012.035.025.052.038s.033.029.048.044.03.032.044.048a.636.636,0,0,1,.038.052q.018.027.033.055c.01.019.019.039.028.059s.015.041.022.061.011.044.016.063a.6.6,0,0,1,.01.064.7.7,0,0,1,0,.132c0,.021-.006.044-.01.064a.59.59,0,0,1-.016.063c-.006.019-.014.041-.022.061s-.018.039-.028.058-.021.038-.033.056-.025.035-.038.052a.65.65,0,0,1-.044.048c-.015.015-.032.03-.048.044a.61.61,0,0,1-.052.038q-.027.018-.056.033l-.058.028c-.02.008-.041.015-.061.022a.606.606,0,0,1-.063.016c-.021,0-.044.007-.064.01A.636.636,0,0,1,296.291,235.305Z" transform="translate(-230.849 -177.788)" fill="#666"/>
    <path id="Path_462" data-name="Path 462" d="M240.791,235.3a.642.642,0,0,1-.065,0c-.022,0-.044-.006-.064-.01s-.042-.01-.063-.016a.591.591,0,0,1-.061-.022c-.02-.008-.04-.018-.059-.028a.687.687,0,0,1-.108-.071.562.562,0,0,1-.048-.044.634.634,0,0,1-.044-.048c-.014-.017-.027-.034-.039-.052s-.023-.037-.033-.056-.019-.038-.028-.058-.015-.041-.022-.061a.6.6,0,0,1-.016-.063.637.637,0,0,1-.013-.129.647.647,0,0,1,0-.065q0-.032.01-.064a.639.639,0,0,1,.016-.063c.006-.02.014-.041.022-.061a.586.586,0,0,1,.028-.058q.015-.029.033-.056c.012-.018.025-.035.039-.052a.64.64,0,0,1,.044-.048c.015-.015.031-.03.048-.044a.684.684,0,0,1,.108-.071c.019-.01.039-.019.059-.028s.04-.015.061-.022a.643.643,0,0,1,.063-.016c.021,0,.044-.007.064-.01a.711.711,0,0,1,.132,0c.022,0,.044.006.064.01a.6.6,0,0,1,.063.016c.019.006.041.014.061.022s.04.018.059.028.037.021.056.033a.634.634,0,0,1,.052.038.572.572,0,0,1,.048.044q.023.023.044.048c.014.017.026.034.039.052s.023.037.033.056a.58.58,0,0,1,.027.058.626.626,0,0,1,.022.061c.006.021.011.044.016.063a.631.631,0,0,1,.01.064.647.647,0,0,1,0,.065.638.638,0,0,1-.013.129.67.67,0,0,1-.038.124.577.577,0,0,1-.027.058c-.01.019-.021.038-.033.056a.641.641,0,0,1-.039.052.65.65,0,0,1-.044.048c-.015.015-.031.03-.048.044a.63.63,0,0,1-.052.038q-.027.018-.056.033c-.019.01-.039.019-.059.028s-.04.015-.061.022a.644.644,0,0,1-.063.016c-.021,0-.044.007-.064.01A.65.65,0,0,1,240.791,235.3Z" transform="translate(-177.795 -177.785)" fill="#666"/>
  </g>
</svg>
