<svg xmlns="http://www.w3.org/2000/svg" width="22.804" height="14.918" viewBox="0 0 22.804 14.918">
  <g id="_4041194_agreement_bussiness_hands_media_meeting_icon" data-name="4041194_agreement_bussiness_hands_media_meeting_icon" transform="translate(-58.4 -95.479)">
    <path id="Path_463" data-name="Path 463" d="M81.2,195.025,78.177,188.3l-3.282,1.473.22.491a4.8,4.8,0,0,1-2.247.15,4.824,4.824,0,0,0-1.525,0,4.724,4.724,0,0,0-1.173.352,3.932,3.932,0,0,0-.508.272l-1.462.716a5.392,5.392,0,0,0-.676-.081,4.9,4.9,0,0,1-2.2-.607l.312-.428-2.929-2.109-4.31,5.986,2.918,2.1.312-.428a4.815,4.815,0,0,1,1.271,1.889c.023.064.046.121.075.185l-.37.508a1.153,1.153,0,0,0,.26,1.606,1.124,1.124,0,0,0,.543.208c0,.058.006.116.012.173a1.18,1.18,0,0,0,.462.751,1.135,1.135,0,0,0,.67.22.561.561,0,0,0,.1-.006,1.157,1.157,0,0,0,1.115.878,1.083,1.083,0,0,0,.358-.058,1.121,1.121,0,0,0,.37.451,1.134,1.134,0,0,0,.67.22.957.957,0,0,0,.185-.017,1.152,1.152,0,0,0,.751-.462l.231-.324,1.1.636a1.235,1.235,0,0,0,.624.168,1.186,1.186,0,0,0,.9-.4,1.252,1.252,0,0,0,.266-.514,1.49,1.49,0,0,0,1.67-.549,1.494,1.494,0,0,0,.272-.716,1.342,1.342,0,0,0-.006-.341,1.468,1.468,0,0,0,1.4-1.473.959.959,0,0,0,.254-.017,1.186,1.186,0,0,0,.78-.485,1.569,1.569,0,0,0,.283-.745.1.1,0,0,1,.006-.04c.081-.1.156-.214.225-.324a4.813,4.813,0,0,1,1.6-1.583l.214.468Zm-1.069-.41-1.8.809-2.363-5.252,1.8-.809Zm-17.24-4.951,1.606,1.156L61.266,195.3l-.133.185-1.606-1.156Zm.37,9.585.5-.7.029-.04a.347.347,0,0,1,.22-.139c.017,0,.035-.006.046-.006h.012a.127.127,0,0,1,.046.006h.012a.148.148,0,0,1,.04.012h.012l.04.017c.006,0,.006.006.012.006l.04.023a.375.375,0,0,1,.092.1.436.436,0,0,1,.052.168v.046h0a.109.109,0,0,1-.012.046.29.29,0,0,1-.029.075.251.251,0,0,0-.023.04h0l-.532.74a.346.346,0,0,1-.22.139.343.343,0,0,1-.341-.532Zm1.1,1.612a.346.346,0,0,1-.139-.22.33.33,0,0,1,.058-.254l1.19-1.652a.346.346,0,0,1,.22-.139c.017,0,.035-.006.052-.006h.012a.127.127,0,0,1,.046.006h.006a.107.107,0,0,1,.04.012h.006a.283.283,0,0,1,.04.017c.006,0,.006.006.012.006l.04.023a.343.343,0,0,1,.139.312c0,.017-.006.029-.006.046s-.006.012-.006.017-.006.017-.006.023-.006.012-.006.017-.006.017-.012.023a.03.03,0,0,0-.012.023c-.006.006-.006.012-.012.017h0l-1.19,1.652a.346.346,0,0,1-.22.139A.353.353,0,0,1,64.362,200.86Zm1.208.872a.341.341,0,0,1-.075-.474l1.19-1.652h0a.289.289,0,0,1,.04-.046l.012-.012a.32.32,0,0,1,.046-.035c.006,0,.006-.006.012-.006s.029-.017.046-.023.006,0,.006-.006c.017-.006.035-.012.058-.017a.021.021,0,0,0,.017-.006h.046a.16.16,0,0,1,.052.006h0a.109.109,0,0,1,.046.012h.006l.046.017a.006.006,0,0,1,.006.006l.04.023a.355.355,0,0,1,.127.179.337.337,0,0,1,.012.133.374.374,0,0,1-.064.168l-1.19,1.652A.344.344,0,0,1,65.57,201.733Zm1.652.664a.33.33,0,0,1-.254-.058.346.346,0,0,1-.139-.219.331.331,0,0,1,.058-.254l.532-.74c.012-.012.017-.023.029-.035l.017-.017c.012-.012.023-.017.035-.029s.012-.012.017-.012l.04-.017c.006-.006.012-.006.017-.012l.064-.017c.017,0,.035-.006.046-.006H67.7a.127.127,0,0,1,.046.006h.012a.147.147,0,0,1,.04.012H67.8l.04.017c.006,0,.006.006.012.006l.04.023a.343.343,0,0,1,.139.312.374.374,0,0,1-.064.168l-.52.74A.351.351,0,0,1,67.222,202.4Zm7.852-4.5h0a.712.712,0,0,1-.133.352.385.385,0,0,1-.254.156.366.366,0,0,1-.289-.069l-.451-.324h0l-.884-.636a.406.406,0,0,0-.474.659l.884.636h0a.676.676,0,0,1,.127.982.708.708,0,0,1-.948.1l-.087-.064-.006-.006h0l-1.092-.786a.406.406,0,1,0-.474.659l1.092.786h0a.684.684,0,0,1,.272.618.631.631,0,0,1-.121.324.671.671,0,0,1-.439.272.65.65,0,0,1-.5-.121l-.532-.381a.006.006,0,0,1-.006-.006l-1.034-.745a.406.406,0,0,0-.474.659l1.034.745h0a.387.387,0,0,1,.156.272.421.421,0,0,1-.092.306.408.408,0,0,1-.514.064l-1.057-.612h0a.107.107,0,0,0,.012-.04c.006-.012.006-.023.012-.029s.006-.029.012-.04.006-.017.006-.029.006-.035.012-.046.006-.017.006-.029.006-.052.012-.075a1.155,1.155,0,0,0-.474-1.051.75.75,0,0,0-.087-.058c-.012-.006-.017-.012-.029-.017s-.04-.023-.064-.035l-.035-.017c-.017-.006-.04-.017-.064-.023a.084.084,0,0,0-.04-.012c-.006,0-.017-.006-.023-.006v-.006a.4.4,0,0,0,.017-.046c.006-.012.006-.017.012-.029a.137.137,0,0,0,.012-.046c0-.012.006-.017.006-.029s.006-.035.012-.052.006-.017.006-.023c.006-.023.006-.052.012-.075h0a1.141,1.141,0,0,0-.41-1,.407.407,0,0,0-.058-.046.811.811,0,0,0-.092-.058c-.012-.006-.017-.012-.029-.017l-.069-.035a.1.1,0,0,0-.029-.012c-.023-.012-.046-.017-.075-.029-.012-.006-.017-.006-.029-.012-.029-.006-.052-.017-.081-.023-.006,0-.017-.006-.023-.006l-.087-.017h-.017a.5.5,0,0,0-.092-.006h-.133c0-.006-.006-.012-.006-.017l-.017-.069c0-.012-.006-.017-.012-.029a.353.353,0,0,0-.029-.069.02.02,0,0,0-.006-.012.529.529,0,0,0-.04-.081c-.006-.006-.006-.012-.012-.023s-.023-.04-.035-.058-.012-.017-.017-.023a.606.606,0,0,0-.046-.064l-.006-.006c-.017-.023-.04-.046-.058-.069l-.017-.017a.377.377,0,0,0-.052-.046.08.08,0,0,0-.023-.017.855.855,0,0,0-.075-.058,1.131,1.131,0,0,0-.855-.2.486.486,0,0,0-.1.023c-.006,0-.017.006-.023.006a.51.51,0,0,0-.087.029c-.006,0-.006,0-.012.006a.639.639,0,0,0-.092.04c-.006.006-.017.006-.023.012l-.075.04a.02.02,0,0,0-.012.006.411.411,0,0,0-.081.058l-.017.017c-.012.006-.017.017-.029.023h0l-.052-.069-.017-.017a.329.329,0,0,0-.04-.046l-.023-.023a.288.288,0,0,0-.046-.04.08.08,0,0,0-.023-.017l-.069-.052a1.131,1.131,0,0,0-.855-.2.489.489,0,0,0-.1.023c-.006,0-.017.006-.023.006-.035.012-.064.017-.1.029h-.006c-.023.006-.04.017-.064.023a5.584,5.584,0,0,0-1.5-2.126l2.744-3.807a5.335,5.335,0,0,0,1.8.664l-.347,3.415a.934.934,0,0,0,.832,1.023,1.794,1.794,0,0,0,1.964-1.6l.092-.9a2.843,2.843,0,0,0,1.329-.393l4.281,3.3a.643.643,0,0,1,.058.052l.006.006.023.023.012.012c.006.006.006.012.012.012l.012.012.017.017.035.052a.236.236,0,0,1,.035.064l.006.012c.006.012.006.017.012.029a.082.082,0,0,1,.012.035c.006.012.006.023.012.035l.012.035c.006.029.012.058.017.081v.012a.073.073,0,0,0,.006.035v.006h0v.029C75.08,197.833,75.08,197.868,75.074,197.9Zm.526-.976-.006-.012-.012-.012a.252.252,0,0,0-.035-.04h0l-.006-.006a.08.08,0,0,1-.017-.023l-.012-.012c-.006-.012-.017-.017-.023-.029l-.006-.006-.029-.029c-.012-.012-.017-.023-.029-.029a1.59,1.59,0,0,0-.139-.121l-4.761-3.675-.248.185a2.032,2.032,0,0,1-1.427.4l-.4-.04-.168,1.67a1,1,0,0,1-.358.664.962.962,0,0,1-.722.214.122.122,0,0,1-.11-.133l.289-2.837,2.068-1.017h0l.572-.283.035-.017a3.592,3.592,0,0,1,.439-.231,3.915,3.915,0,0,1,.971-.295,3.873,3.873,0,0,1,1.265,0,5.616,5.616,0,0,0,2.71-.2l1.924,4.281A5.573,5.573,0,0,0,75.6,196.92Z" transform="translate(0 -92.821)" fill="#666"/>
    <path id="Path_464" data-name="Path 464" d="M402.3,282.736c.023,0,.04.006.064.006a.584.584,0,0,0,.375-.133.616.616,0,0,0,.22-.4.6.6,0,1,0-.659.532Zm-.133-.612a.193.193,0,0,1,.191-.173h.017a.2.2,0,0,1,.133.069.186.186,0,0,1,.04.144h0a.2.2,0,0,1-.069.133.186.186,0,0,1-.144.04A.2.2,0,0,1,402.166,282.124Z" transform="translate(-323.522 -180.676)" fill="#666"/>
    <path id="Path_465" data-name="Path 465" d="M90.738,280.4a.6.6,0,1,0-1.2-.121.573.573,0,0,0,.133.439.615.615,0,0,0,.4.219c.023,0,.04.006.064.006A.6.6,0,0,0,90.738,280.4Zm-.745.063a.186.186,0,0,1-.04-.144.193.193,0,0,1,.191-.173h.017a.195.195,0,1,1-.04.387A.2.2,0,0,1,89.993,280.468Z" transform="translate(-29.339 -178.98)" fill="#666"/>
  </g>
</svg>
