<svg xmlns="http://www.w3.org/2000/svg" xmlns:xlink="http://www.w3.org/1999/xlink" width="453.64" height="134" viewBox="0 0 453.64 134">
  <defs>
    <filter id="Union_6" x="0" y="0" width="453.64" height="134" filterUnits="userSpaceOnUse">
      <feOffset input="SourceAlpha"/>
      <feGaussianBlur stdDeviation="5" result="blur"/>
      <feFlood flood-opacity="0.161"/>
      <feComposite operator="in" in2="blur"/>
      <feComposite in="SourceGraphic"/>
    </filter>
  </defs>
  <g id="Group_853" data-name="Group 853" transform="translate(-1403.361 -167)">
    <g id="Group_221" data-name="Group 221" transform="translate(-6694 -3551)">
      <g transform="matrix(1, 0, 0, 1, 8097.36, 3718)" filter="url(#Union_6)">
        <path id="Union_6-2" data-name="Union 6" d="M55.717,104H53.871L1.58,55.535a4.746,4.746,0,0,1,0-7.071L53.87,0H410.639a13,13,0,0,1,13,13V91a13,13,0,0,1-13,13Z" transform="translate(15 15)" fill="#fff"/>
      </g>
      <text id="پروفایل_کاربر" data-name="پروفایل کاربر" transform="translate(8425 3796)" fill="#1665c7" font-size="45" font-family="BYekan, B Yekan"><tspan x="-222.693" y="0">پروفایل کاربر</tspan></text>
      <path id="Path_204" data-name="Path 204" d="M8437.151,3768.8v33.143" fill="none" stroke="rgba(70,105,148,0.49)" stroke-width="1"/>
    </g>
    <path id="Path_256" data-name="Path 256" d="M18.669,51.322c.3-8.705,7.071-15.69,15.351-15.69s15.051,6.984,15.351,15.69Zm7.958-24.744a7.636,7.636,0,0,1,7.394-7.842,7.636,7.636,0,0,1,7.394,7.842,7.635,7.635,0,0,1-7.394,7.84A7.635,7.635,0,0,1,26.626,26.578Zm10.88,8.25a9.094,9.094,0,0,0,5.045-8.25A8.81,8.81,0,0,0,34.02,17.53a8.811,8.811,0,0,0-8.533,9.048,9.1,9.1,0,0,0,5.045,8.25c-7.427,1.7-13.012,8.717-13.012,17.1a.587.587,0,0,0,.568.6H49.951a.587.587,0,0,0,.569-.6C50.52,43.546,44.935,36.53,37.506,34.828Z" transform="translate(1736.48 198.47)" fill="#0f4b95"/>
  </g>
</svg>
