<svg id="_7148740_category_variety_random_shuffle_icon" data-name="7148740_category_variety_random_shuffle_icon" xmlns="http://www.w3.org/2000/svg" width="19.003" height="19" viewBox="0 0 19.003 19">
  <path id="Path_447" data-name="Path 447" d="M6.684,8.4H2.028A1.78,1.78,0,0,1,.25,6.626v-4.6A1.78,1.78,0,0,1,2.028.25H6.684A1.78,1.78,0,0,1,8.462,2.028v4.6A1.78,1.78,0,0,1,6.684,8.4ZM2.028,1.627a.4.4,0,0,0-.4.4v4.6a.4.4,0,0,0,.4.4H6.684a.4.4,0,0,0,.4-.4v-4.6a.4.4,0,0,0-.4-.4Z" transform="translate(-0.25 -0.25)"/>
  <path id="Path_448" data-name="Path 448" d="M6.725,28.1H2.069A1.781,1.781,0,0,1,.291,26.32v-4.6a1.78,1.78,0,0,1,1.778-1.778H6.725A1.78,1.78,0,0,1,8.5,21.723v4.6A1.78,1.78,0,0,1,6.725,28.1ZM2.069,21.322a.4.4,0,0,0-.4.4v4.6a.4.4,0,0,0,.4.4H6.725a.4.4,0,0,0,.4-.4v-4.6a.4.4,0,0,0-.4-.4Z" transform="translate(-0.268 -9.098)"/>
  <path id="Path_449" data-name="Path 449" d="M26.273,28.1H21.617a1.781,1.781,0,0,1-1.778-1.778v-4.6a1.78,1.78,0,0,1,1.778-1.778h4.656a1.78,1.78,0,0,1,1.778,1.778v4.6A1.78,1.78,0,0,1,26.273,28.1Zm-4.656-6.774a.4.4,0,0,0-.4.4v4.6a.4.4,0,0,0,.4.4h4.656a.4.4,0,0,0,.4-.4v-4.6a.4.4,0,0,0-.4-.4Z" transform="translate(-9.051 -9.098)"/>
  <path id="Path_450" data-name="Path 450" d="M24,8.406A4.075,4.075,0,1,1,28.106,4.33,4.075,4.075,0,0,1,24,8.406Zm0-6.774a2.7,2.7,0,1,0,2.729,2.7A2.7,2.7,0,0,0,24,1.632Z" transform="translate(-9.103 -0.252)"/>
</svg>
