<svg xmlns="http://www.w3.org/2000/svg" width="46.695" height="42.36" viewBox="0 0 46.695 42.36">
  <g id="Group_89" data-name="Group 89" transform="translate(-1582.083 -731.652)">
    <g id="Layer_2" transform="matrix(0.695, 0.719, -0.719, 0.695, 1605.807, 732.778)">
      <g id="Group_65" data-name="Group 65" transform="translate(0 0)">
        <path id="Path_44" data-name="Path 44" d="M15.731,15.262h-.47A15.231,15.231,0,0,1,0,0" transform="translate(0 15.262)" fill="none" stroke="#ef413d" stroke-linecap="round" stroke-linejoin="round" stroke-miterlimit="10" stroke-width="2.5"/>
        <path id="Path_45" data-name="Path 45" d="M2.818,0A16.159,16.159,0,0,1,0,3.522" transform="translate(25.593 22.893)" fill="none" stroke="#ef413d" stroke-linecap="round" stroke-linejoin="round" stroke-miterlimit="10" stroke-width="2.5"/>
        <path id="Path_46" data-name="Path 46" d="M0,0A15.231,15.231,0,0,1,15.262,15.262a12.76,12.76,0,0,1-.117,2.113" transform="translate(15.262 0)" fill="none" stroke="#ef413d" stroke-linecap="round" stroke-linejoin="round" stroke-miterlimit="10" stroke-width="2.5"/>
      </g>
    </g>
    <path id="Path_47" data-name="Path 47" d="M0,0,11.857,11.857" transform="translate(1605.431 734.152) rotate(45)" fill="none" stroke="#ef413d" stroke-linecap="round" stroke-linejoin="round" stroke-miterlimit="10" stroke-width="2.5"/>
  </g>
</svg>
