<svg xmlns="http://www.w3.org/2000/svg" width="53.028" height="42.22" viewBox="0 0 53.028 42.22">
  <g id="Group_86" data-name="Group 86" transform="translate(-1462.972 -594.32)">
    <g id="Group_85" data-name="Group 85" transform="translate(918.722 394.53)">
      <g id="Group_60" data-name="Group 60" transform="translate(545 200.54)">
        <g id="Layer_2" transform="translate(0 0)">
          <g id="Group_27" data-name="Group 27" transform="translate(0 0)">
            <path id="Path_5" data-name="Path 5" d="M8.8,14.161V12.688A3.474,3.474,0,0,1,12.288,9.2H40c1.163,0,3.457-.034,4.68.88s1.085,4.009,1.085,4.009" transform="translate(-5.855 -9.2)" fill="none" stroke="#f99c0f" stroke-linecap="round" stroke-linejoin="round" stroke-miterlimit="10" stroke-width="1.5"/>
            <path id="Path_6" data-name="Path 6" d="M3,23.709V20.763A4.251,4.251,0,0,1,7.263,16.5H43.694a4.251,4.251,0,0,1,4.263,4.263V41.924a4.251,4.251,0,0,1-4.263,4.263H7.263A4.251,4.251,0,0,1,3,41.924V39.6" transform="translate(-3 -10.841)" fill="none" stroke="#f99c0f" stroke-linecap="round" stroke-linejoin="round" stroke-miterlimit="10" stroke-width="1.5"/>
            <line id="Line_1" data-name="Line 1" y1="3.256" transform="translate(0 16.278)" fill="none" stroke="#f99c0f" stroke-linecap="round" stroke-linejoin="round" stroke-miterlimit="10" stroke-width="1.5"/>
            <path id="Path_7" data-name="Path 7" d="M52.986,37.2v5.813a2.449,2.449,0,0,1-2.48,2.48H45.7" transform="translate(-12.602 -15.496)" fill="none" stroke="#f99c0f" stroke-linecap="round" stroke-linejoin="round" stroke-miterlimit="10" stroke-width="1.5"/>
            <line id="Line_2" data-name="Line 2" y2="2.093" transform="translate(40.384 15.968)" fill="none" stroke="#f99c0f" stroke-linecap="round" stroke-linejoin="round" stroke-miterlimit="10" stroke-width="1.5"/>
          </g>
        </g>
      </g>
      <path id="Path_39" data-name="Path 39" stroke="#f99c0f" d="M22.266,38.432A2.192,2.192,0,0,1,20.1,36.263a.9.9,0,1,0-1.8,0,3.991,3.991,0,0,0,3.067,3.858V40.9a.9.9,0,1,0,1.8,0v-.779a3.964,3.964,0,0,0-.9-7.824,2.169,2.169,0,1,1,0-4.338,2.168,2.168,0,0,1,2.169,2.169.9.9,0,0,0,1.8,0,3.958,3.958,0,0,0-3.067-3.858v-.791a.9.9,0,1,0-1.8,0v.791a3.964,3.964,0,0,0,.9,7.824,2.169,2.169,0,1,1,0,4.338Z" transform="translate(543.797 187.695)"/>
    </g>
    <rect id="Rectangle_164" data-name="Rectangle 164" width="21" height="21" transform="translate(1495 615.54)" fill="#fff"/>
    <g id="Ellipse_29" data-name="Ellipse 29" transform="translate(1497 617.54)" fill="#fff" stroke="#f99c0f" stroke-width="1.5">
      <circle cx="8.5" cy="8.5" r="8.5" stroke="#f99c0f"/>
      <circle cx="8.5" cy="8.5" r="7.75" fill="none" stroke="#f99c0f" />
    </g>
    <g id="_4634453___add_interface_plus_ui_icon" data-name="4634453_+_add_interface_plus_ui_icon" transform="translate(1493.26 613.8)">
      <g id="Group_57" data-name="Group 57" transform="translate(11.71 8)">
        <path id="Path_36" data-name="Path 36" d="M15.53,16.481a.53.53,0,0,1-.53-.53V8.53a.53.53,0,0,1,1.06,0v7.421A.53.53,0,0,1,15.53,16.481Z" transform="translate(-15 -8)" stroke="#f99c0f" stroke-width="0.5"/>
      </g>
      <g id="Group_58" data-name="Group 58" transform="translate(8 11.71)">
        <path id="Path_37" data-name="Path 37" d="M15.951,16.06H8.53a.53.53,0,1,1,0-1.06h7.421a.53.53,0,1,1,0,1.06Z" transform="translate(-8 -15)" stroke="#f99c0f" stroke-width="0.5"/>
      </g>
    </g>
  </g>
</svg>
