<svg xmlns="http://www.w3.org/2000/svg" width="43.684" height="55.082" viewBox="0 0 43.684 55.082">
  <g id="Group_79" data-name="Group 79" transform="translate(-552.75 -78.25)">
    <g id="Layer_2" transform="translate(567.896 98.194)">
      <g id="Group_67" data-name="Group 67" transform="translate(0 0)">
        <line id="Line_8" data-name="Line 8" x2="8.595" transform="translate(5.096 6.389)" fill="none" stroke="#60b967" stroke-linecap="round" stroke-linejoin="round" stroke-miterlimit="10" stroke-width="1.5"/>
        <line id="Line_9" data-name="Line 9" x2="1.673" transform="translate(0 6.389)" fill="none" stroke="#60b967" stroke-linecap="round" stroke-linejoin="round" stroke-miterlimit="10" stroke-width="1.5"/>
        <line id="Line_10" data-name="Line 10" x2="13.691" transform="translate(0 12.778)" fill="none" stroke="#60b967" stroke-linecap="round" stroke-linejoin="round" stroke-miterlimit="10" stroke-width="1.5"/>
        <line id="Line_11" data-name="Line 11" x2="4.868" transform="translate(8.823)" fill="none" stroke="#60b967" stroke-linecap="round" stroke-linejoin="round" stroke-miterlimit="10" stroke-width="1.5"/>
        <line id="Line_12" data-name="Line 12" x2="5.096" fill="none" stroke="#60b967" stroke-linecap="round" stroke-linejoin="round" stroke-miterlimit="10" stroke-width="1.5"/>
      </g>
    </g>
    <g id="Layer_2-2" data-name="Layer_2" transform="translate(553.5 79)">
      <g id="Group_68" data-name="Group 68" transform="translate(0 0)" stroke="#60b967">
        <path id="Path_50" data-name="Path 50" d="M19.045,44.056H14.667A3.377,3.377,0,0,1,11.3,40.689V22" transform="translate(-11.216 -5.163)" fill="none" stroke="#60b967" stroke-linecap="round" stroke-linejoin="round" stroke-miterlimit="10" stroke-width="1.5"/>
        <path id="Path_51" data-name="Path 51" d="M11.2,13.112V5.367A3.377,3.377,0,0,1,14.567,2H35.024a3.377,3.377,0,0,1,3.367,3.367v8.25" transform="translate(-11.2 -2)" fill="none" stroke="#60b967" stroke-linecap="round" stroke-linejoin="round" stroke-miterlimit="10" stroke-width="1.5"/>
        <path id="Path_52" data-name="Path 52" d="M47.691,47.116v4.209a3.377,3.377,0,0,1-3.367,3.367H23.867A3.377,3.377,0,0,1,20.5,51.326V19.167A3.377,3.377,0,0,1,23.867,15.8H44.324a3.377,3.377,0,0,1,3.367,3.367v18.6" transform="translate(-12.671 -4.183)" fill="none" stroke="#60b967" stroke-linecap="round" stroke-linejoin="round" stroke-miterlimit="10" stroke-width="1.5"/>
        <line id="Line_13" data-name="Line 13" y1="2.694" transform="translate(35.021 37.883)" fill="none" stroke="#60b967" stroke-linecap="round" stroke-linejoin="round" stroke-miterlimit="10" stroke-width="1.5"/>
      </g>
    </g>
    <g id="Layer_2-3" data-name="Layer_2" transform="translate(567.896 110.972)">
      <g id="Group_67-2" data-name="Group 67" transform="translate(0 0)">
        <line id="Line_8-2" data-name="Line 8" x1="8.595" transform="translate(0 6.389)" fill="none" stroke="#60b967" stroke-linecap="round" stroke-linejoin="round" stroke-miterlimit="10" stroke-width="1.5"/>
        <line id="Line_9-2" data-name="Line 9" x1="1.673" transform="translate(12.018 6.389)" fill="none" stroke="#60b967" stroke-linecap="round" stroke-linejoin="round" stroke-miterlimit="10" stroke-width="1.5"/>
        <line id="Line_11-2" data-name="Line 11" x1="4.868" transform="translate(0)" fill="none" stroke="#60b967" stroke-linecap="round" stroke-linejoin="round" stroke-miterlimit="10" stroke-width="1.5"/>
        <line id="Line_12-2" data-name="Line 12" x1="5.096" transform="translate(8.595)" fill="none" stroke="#60b967" stroke-linecap="round" stroke-linejoin="round" stroke-miterlimit="10" stroke-width="1.5"/>
      </g>
    </g>
    <rect id="Rectangle_154" data-name="Rectangle 154" width="17.679" height="17.679" transform="translate(578.755 115.654)" fill="#fff"/>
    <g id="Ellipse_26" data-name="Ellipse 26" transform="translate(580.439 117.337)" fill="#fff" stroke="#60b967" stroke-width="1.25">
      <circle cx="7.156" cy="7.156" r="7.156" stroke="#60b967"/>
      <circle cx="7.156" cy="7.156" r="6.531" fill="none" stroke="#60b967"/>
    </g>
    <line id="Line_14" data-name="Line 14" x2="4.868" transform="translate(572.307 123.75)" fill="none" stroke="#60b967" stroke-linecap="round" stroke-linejoin="round" stroke-miterlimit="10" stroke-width="1.5"/>
    <line id="Line_15" data-name="Line 15" x2="1.673" transform="translate(567.896 123.75)" fill="none" stroke="#60b967" stroke-linecap="round" stroke-linejoin="round" stroke-miterlimit="10" stroke-width="1.5"/>
    <line id="Line_16" data-name="Line 16" x2="1.673" transform="translate(577.082 129.51)" fill="none" stroke="#60b967" stroke-linecap="round" stroke-linejoin="round" stroke-miterlimit="10" stroke-width="1.5"/>
    <g id="Group_70" data-name="Group 70" transform="translate(583.879 121.653)">
      <g id="Group_69" data-name="Group 69" transform="translate(6.801 0) rotate(45)">
        <path id="Path_36" data-name="Path 36" d="M.446,7.14A.446.446,0,0,1,0,6.693V.446a.446.446,0,1,1,.892,0V6.693A.446.446,0,0,1,.446,7.14Z" stroke="#60b967" stroke-width="0.5"/>
      </g>
      <path id="Path_53" data-name="Path 53" d="M2.97.892H.446A.446.446,0,1,1,.446,0H2.97c.247,0,0,.2,0,.446S3.217.892,2.97.892Z" transform="translate(0.631 2.662) rotate(45)" stroke="#60b967" stroke-width="0.5"/>
    </g>
  </g>
</svg>
