<svg xmlns="http://www.w3.org/2000/svg" width="36.488" height="51.963" viewBox="0 0 36.488 51.963">
  <g id="Group_77" data-name="Group 77" transform="translate(-484.75 -75.98)">
    <g id="Layer_2" transform="translate(499.882 95.906)">
      <g id="Group_67" data-name="Group 67" transform="translate(0 0)">
        <line id="Line_8" data-name="Line 8" x2="8.587" transform="translate(5.091 6.383)" fill="none" stroke="#60b967" stroke-linecap="round" stroke-linejoin="round" stroke-miterlimit="10" stroke-width="1.5"/>
        <line id="Line_9" data-name="Line 9" x2="1.672" transform="translate(0 6.383)" fill="none" stroke="#60b967" stroke-linecap="round" stroke-linejoin="round" stroke-miterlimit="10" stroke-width="1.5"/>
        <line id="Line_10" data-name="Line 10" x2="13.678" transform="translate(0 12.766)" fill="none" stroke="#60b967" stroke-linecap="round" stroke-linejoin="round" stroke-miterlimit="10" stroke-width="1.5"/>
        <line id="Line_11" data-name="Line 11" x2="4.863" transform="translate(8.815)" fill="none" stroke="#60b967" stroke-linecap="round" stroke-linejoin="round" stroke-miterlimit="10" stroke-width="1.5"/>
        <line id="Line_12" data-name="Line 12" x2="5.091" fill="none" stroke="#60b967" stroke-linecap="round" stroke-linejoin="round" stroke-miterlimit="10" stroke-width="1.5"/>
      </g>
    </g>
    <g id="Layer_2-2" data-name="Layer_2" transform="translate(485.5 76.73)">
      <g id="Group_68" data-name="Group 68" transform="translate(0 0)">
        <path id="Path_50" data-name="Path 50" d="M19.038,44.036H14.664A3.374,3.374,0,0,1,11.3,40.671V22" transform="translate(-11.216 -5.179)" fill="none" stroke="#60b967" stroke-linecap="round" stroke-linejoin="round" stroke-miterlimit="10" stroke-width="1.5"/>
        <path id="Path_51" data-name="Path 51" d="M11.2,13.1V5.364A3.374,3.374,0,0,1,14.564,2H35a3.374,3.374,0,0,1,3.364,3.364v8.242" transform="translate(-11.2 -2)" fill="none" stroke="#60b967" stroke-linecap="round" stroke-linejoin="round" stroke-miterlimit="10" stroke-width="1.5"/>
        <path id="Path_52" data-name="Path 52" d="M47.666,47.087v4.205A3.374,3.374,0,0,1,44.3,54.657H23.864A3.374,3.374,0,0,1,20.5,51.292V19.164A3.374,3.374,0,0,1,23.864,15.8H44.3a3.374,3.374,0,0,1,3.364,3.364V37.751" transform="translate(-12.678 -4.193)" fill="none" stroke="#60b967" stroke-linecap="round" stroke-linejoin="round" stroke-miterlimit="10" stroke-width="1.5"/>
        <line id="Line_13" data-name="Line 13" y1="2.691" transform="translate(34.988 37.847)" fill="none" stroke="#60b967" stroke-linecap="round" stroke-linejoin="round" stroke-miterlimit="10" stroke-width="1.5"/>
      </g>
    </g>
    <g id="Layer_2-3" data-name="Layer_2" transform="translate(499.882 108.672)">
      <g id="Group_67-2" data-name="Group 67" transform="translate(0 0)">
        <line id="Line_8-2" data-name="Line 8" x1="8.587" transform="translate(0 6.383)" fill="none" stroke="#60b967" stroke-linecap="round" stroke-linejoin="round" stroke-miterlimit="10" stroke-width="1.5"/>
        <line id="Line_9-2" data-name="Line 9" x1="1.672" transform="translate(12.006 6.383)" fill="none" stroke="#60b967" stroke-linecap="round" stroke-linejoin="round" stroke-miterlimit="10" stroke-width="1.5"/>
        <line id="Line_11-2" data-name="Line 11" x1="4.863" transform="translate(0)" fill="none" stroke="#60b967" stroke-linecap="round" stroke-linejoin="round" stroke-miterlimit="10" stroke-width="1.5"/>
        <line id="Line_12-2" data-name="Line 12" x1="5.091" transform="translate(8.587)" fill="none" stroke="#60b967" stroke-linecap="round" stroke-linejoin="round" stroke-miterlimit="10" stroke-width="1.5"/>
      </g>
    </g>
    <line id="Line_19" data-name="Line 19" x2="1.672" transform="translate(509.06 127.193)" fill="none" stroke="#60b967" stroke-linecap="round" stroke-linejoin="round" stroke-miterlimit="10" stroke-width="1.5"/>
    <line id="Line_20" data-name="Line 20" x2="8.587" transform="translate(504.973 121.633)" fill="none" stroke="#60b967" stroke-linecap="round" stroke-linejoin="round" stroke-miterlimit="10" stroke-width="1.5"/>
    <line id="Line_21" data-name="Line 21" x2="1.672" transform="translate(499.882 121.633)" fill="none" stroke="#60b967" stroke-linecap="round" stroke-linejoin="round" stroke-miterlimit="10" stroke-width="1.5"/>
  </g>
</svg>
