<svg xmlns="http://www.w3.org/2000/svg" width="48.338" height="29.603" viewBox="0 0 48.338 29.603">
  <g id="Group_127" data-name="Group 127" transform="translate(-307.514 -674.619)">
    <g id="_5803982_agreement_avoid_contact_business_handshake_coronavirus_icon" data-name="5803982_agreement_avoid contact_business_handshake_coronavirus_icon" transform="translate(302 647)">
      <path id="Path_72" data-name="Path 72" d="M53.834,30.962a.837.837,0,0,0-1-.674l-8.473,1.674a.891.891,0,0,0-.138.046,4.958,4.958,0,0,0-.665.109l-2.276.682h-.3c-.318,0-.665-.255-1.494-.883L39,31.544A34.644,34.644,0,0,0,35.487,29.4c-.732-.418-1.427-.8-1.82-1.063a6.76,6.76,0,0,0-4.962-.452A15.983,15.983,0,0,0,24.416,30.6a36.927,36.927,0,0,0-3.736.439,12.97,12.97,0,0,1-4.573.364h0L11.6,30.368,8.178,28.694A.838.838,0,0,0,7.441,30.2l2.879,1.41c-1.623,6-4.481,16.506-4.745,17.3a1.2,1.2,0,0,0,.142,1.046C6.358,51,8.985,51.548,10.5,51.778a.64.64,0,0,0,.126,0,.837.837,0,0,0,.711-.393l.929-1.485a2.828,2.828,0,0,0,.331.3,2.669,2.669,0,0,0,2.761.238,2.51,2.51,0,0,0,.155.494,4.063,4.063,0,0,0,2.845,2.284,3.226,3.226,0,0,0,1.975-.167,3.561,3.561,0,0,0,1,1.674,3.414,3.414,0,0,0,3.536.983,2.272,2.272,0,0,0,1.351,1.322,3.607,3.607,0,0,0,1.172.2,4.276,4.276,0,0,0,2.481-.887,2.092,2.092,0,0,0,.749.64,2.268,2.268,0,0,0,1.05.243,3.347,3.347,0,0,0,1.079-.192,3.029,3.029,0,0,0,1.711-1.632,4.49,4.49,0,0,0,2.736-.565,3.2,3.2,0,0,0,1.255-1.795,3.163,3.163,0,0,0,2.745-.782,2.849,2.849,0,0,0,.979-2.2,4.381,4.381,0,0,0,.778-.163,4.966,4.966,0,0,0,2.477,2.4,5.812,5.812,0,0,0,2.414.531A4.439,4.439,0,0,0,49.83,52.4c3.51-1.753,4.113-6.577,1.845-14.74A7.6,7.6,0,0,0,48.424,32.9l4.736-.933a.837.837,0,0,0,.674-1Zm-24.6-1.477a5.1,5.1,0,0,1,3.51.255c.418.293,1.13.682,1.929,1.13a34.443,34.443,0,0,1,3.347,2.021l.469.351A4.131,4.131,0,0,0,41,34.468a5.4,5.4,0,0,1,5.188,4.3c1.063,4.6.937,8.565.515,9.176a1.649,1.649,0,0,1-1.172.669,2.184,2.184,0,0,1-.711-.059,3.259,3.259,0,0,0-.418-3.858c-.732-.728-10.627-9.2-12.1-10.318a3.533,3.533,0,0,0-4.506-.025,11.41,11.41,0,0,0-2.389,3.121,4.481,4.481,0,0,1-2.791,1.343,1.159,1.159,0,0,1-1.046-.653A4.475,4.475,0,0,1,22.291,37a17.748,17.748,0,0,0,1.038-1.519,7.159,7.159,0,0,0,.837-1.761,2.573,2.573,0,0,1,.54-.992A13.638,13.638,0,0,1,29.232,29.485ZM10.194,50.016a10.975,10.975,0,0,1-2.929-.87C7.9,47,11.065,35.339,11.927,32.159l3.121.72a65.755,65.755,0,0,1-1.008,9,29.594,29.594,0,0,1-1.674,4.381,4.155,4.155,0,0,0-.644,1.335c0,.025-.038.046-.054.075Zm3.385-1.163a.628.628,0,0,1-.289-.418,1.556,1.556,0,0,1,.218-.837,6.694,6.694,0,0,1,1.071.264,1.381,1.381,0,0,1,.678.707C14.814,48.87,14.086,49.242,13.579,48.853Zm5.163,2.732a2.406,2.406,0,0,1-1.728-1.347,1.954,1.954,0,0,1,0-.975l1.971-1.975a2.216,2.216,0,0,1,1.674-.837,2.51,2.51,0,0,1,1.364.837c.749.745.9,1.059-.812,3.054l-.314.364A2.8,2.8,0,0,1,18.742,51.585Zm3.766,1.937c-.879-.883-.556-1.46-.418-1.632l.042-.05q.276-.31.54-.615c.761-.87,2.138-2.427,2.749-3.038a1.988,1.988,0,0,1,2.962.163,1.252,1.252,0,0,1,.3,1.674l-3.791,3.791a1.722,1.722,0,0,1-2.4-.293Zm4.264,1.916a.837.837,0,0,1-.444-.665l3.59-3.594a.6.6,0,0,1,.941,0,1.046,1.046,0,0,1,.272,1.385h0a12.97,12.97,0,0,1-1.31,1.64c-1.51,1.5-2.427,1.448-3.063,1.234Zm5.477,0c-.753.251-.992,0-1.067-.188v-.029a12.729,12.729,0,0,0,.837-1.008l.874.611a1.28,1.28,0,0,1-.657.615Zm8.887-7.088H41.1l-6.305-5.125a.837.837,0,0,0-1.042,1.289L40.47,50H40.5a.059.059,0,0,1,0,.029,1.255,1.255,0,0,1-.469,1.025c-.552.556-1.586.276-1.854.192L31.9,47.058a.836.836,0,1,0-.925,1.393l5.92,3.946a1.674,1.674,0,0,1-.632,1.021,3.473,3.473,0,0,1-2.176.23h0l-1.255-.866a2.741,2.741,0,0,0-.808-2.774,2.3,2.3,0,0,0-1.49-.715A3.067,3.067,0,0,0,29.55,47.2a3.613,3.613,0,0,0-5.326-.163c-.067.063-.138.138-.218.222a3.766,3.766,0,0,0-.812-1.117,4.054,4.054,0,0,0-2.343-1.3,3.679,3.679,0,0,0-3.075,1.3L16.5,47.4a2.732,2.732,0,0,0-1.4-1.121,7.774,7.774,0,0,0-.8-.226,30.222,30.222,0,0,0,1.339-3.695,60.791,60.791,0,0,0,1.046-9.2A19.268,19.268,0,0,0,21,32.7c.536-.109,1.23-.2,1.874-.268a3.975,3.975,0,0,0-.331.795,5.586,5.586,0,0,1-.661,1.4,16.406,16.406,0,0,1-.95,1.385C20.2,37,19.508,37.941,20.1,39a2.828,2.828,0,0,0,2.653,1.494,5.831,5.831,0,0,0,4.138-2.255,10.741,10.741,0,0,1,1.837-2.51A1.866,1.866,0,0,1,31.29,35.7c1.368,1.042,11.247,9.494,11.916,10.176a1.577,1.577,0,0,1,0,2A2.648,2.648,0,0,1,41.136,48.351ZM50.068,38.1c1.368,4.929,2.31,11.15-.983,12.8a3.632,3.632,0,0,1-2.929-.126,3.766,3.766,0,0,1-.778-.481h.18a3.347,3.347,0,0,0,2.418-1.3c1.084-1.351.745-6.552-.188-10.6A6.766,6.766,0,0,0,44.3,33.678C45.328,33.514,48.738,33.351,50.068,38.1Z" transform="translate(0 0)" fill="#60b967"/>
    </g>
  </g>
</svg>
