<svg xmlns="http://www.w3.org/2000/svg" width="46.457" height="47.25" viewBox="0 0 46.457 47.25">
  <g id="Group_88" data-name="Group 88" transform="translate(-1521.972 -687.5)">
    <g id="Group_87" data-name="Group 87" transform="translate(977.722 498.114)">
      <g id="Group_60" data-name="Group 60" transform="translate(545 200.54)">
        <g id="Layer_2" transform="translate(0 0)">
          <g id="Group_27" data-name="Group 27" transform="translate(0 0)">
            <path id="Path_5" data-name="Path 5" d="M8.8,14.161V12.688A3.474,3.474,0,0,1,12.288,9.2H40c1.163,0,3.457-.034,4.68.88s1.085,4.009,1.085,4.009" transform="translate(-5.855 -9.2)" fill="none" stroke="#f99c0f" stroke-linecap="round" stroke-linejoin="round" stroke-miterlimit="10" stroke-width="1.5"/>
            <path id="Path_6" data-name="Path 6" d="M3,23.709V20.763A4.251,4.251,0,0,1,7.263,16.5H43.694a4.251,4.251,0,0,1,4.263,4.263V41.924a4.251,4.251,0,0,1-4.263,4.263H7.263A4.251,4.251,0,0,1,3,41.924V39.6" transform="translate(-3 -10.841)" fill="none" stroke="#f99c0f" stroke-linecap="round" stroke-linejoin="round" stroke-miterlimit="10" stroke-width="1.5"/>
            <line id="Line_1" data-name="Line 1" y1="3.256" transform="translate(0 16.278)" fill="none" stroke="#f99c0f" stroke-linecap="round" stroke-linejoin="round" stroke-miterlimit="10" stroke-width="1.5"/>
            <path id="Path_7" data-name="Path 7" d="M52.986,37.2v5.813a2.449,2.449,0,0,1-2.48,2.48H45.7" transform="translate(-12.602 -15.496)" fill="none" stroke="#f99c0f" stroke-linecap="round" stroke-linejoin="round" stroke-miterlimit="10" stroke-width="1.5"/>
            <line id="Line_2" data-name="Line 2" y2="2.093" transform="translate(40.384 15.968)" fill="none" stroke="#f99c0f" stroke-linecap="round" stroke-linejoin="round" stroke-miterlimit="10" stroke-width="1.5"/>
          </g>
        </g>
      </g>
      <path id="Path_39" data-name="Path 39" stroke="#f99c0f" d="M22.266,38.432A2.192,2.192,0,0,1,20.1,36.263a.9.9,0,1,0-1.8,0,3.991,3.991,0,0,0,3.067,3.858V40.9a.9.9,0,1,0,1.8,0v-.779a3.964,3.964,0,0,0-.9-7.824,2.169,2.169,0,1,1,0-4.338,2.168,2.168,0,0,1,2.169,2.169.9.9,0,0,0,1.8,0,3.958,3.958,0,0,0-3.067-3.858v-.791a.9.9,0,1,0-1.8,0v.791a3.964,3.964,0,0,0,.9,7.824,2.169,2.169,0,1,1,0,4.338Z" transform="translate(543.797 187.695)"/>
    </g>
    <rect id="Rectangle_165" data-name="Rectangle 165" width="27" height="4" transform="translate(1530 697)" fill="#fff"/>
    <g id="file" transform="translate(1532.036 687.5)">
      <g id="Group_36" data-name="Group 36" transform="translate(0 0)">
        <g id="Group_34" data-name="Group 34" transform="translate(13.405 1.908)">
          <path id="Path_23" data-name="Path 23" stroke="#f99c0f" d="M29.528,18.186V3.477a.477.477,0,0,1,.954,0V18.186C30.482,18.449,9.706,18.186,29.528,18.186Z" transform="translate(-20.959 -3)"/>
        </g>
        <g id="Group_35" data-name="Group 35" transform="translate(0)">
          <path id="Path_24" data-name="Path 24" stroke="#f99c0f" d="M3.96,18.16,3.991,7.2a.477.477,0,1,1,.954,0V17.753H24.026V1.954H12.1A.477.477,0,0,1,12.1,1H24.5a.477.477,0,0,1,.477.477V17.753C24.98,18.016,3.96,18.424,3.96,18.16Z" transform="translate(-3.96 -1)"/>
          <path id="Path_35" data-name="Path 35" stroke="#f99c0f" d="M3.96,18.16,3.991,7.2a.477.477,0,1,1,.954,0V17.753H24.026V1.954H12.1A.477.477,0,0,1,12.1,1H24.5a.477.477,0,0,1,.477.477V17.753C24.98,18.016,3.96,18.424,3.96,18.16Z" transform="translate(-3.96 -1)"/>
        </g>
      </g>
      <g id="Group_38" data-name="Group 38" transform="translate(0.051 0)">
        <g id="Group_37" data-name="Group 37">
          <path id="Path_25" data-name="Path 25" stroke="#f99c0f" d="M10.2,7.678H4.5a.478.478,0,0,1-.338-.814l5.7-5.724a.477.477,0,0,1,.815.337V7.2A.477.477,0,0,1,10.2,7.678ZM5.648,6.724H9.725V2.631Z" transform="translate(-4.022 -1)"/>
        </g>
      </g>
      <g id="Group_40" data-name="Group 40" transform="translate(2.893 13.403)">
        <g id="Group_39" data-name="Group 39">
          <path id="Path_26" data-name="Path 26" stroke="#f99c0f" d="M7.477,14.954H15.11a.477.477,0,1,0,0-.954H7.477a.477.477,0,1,0,0,.954Z" transform="translate(-7 -14)"/>
        </g>
      </g>
      <g id="Group_48" data-name="Group 48" transform="translate(2.893 16.219)">
        <g id="Group_47" data-name="Group 47">
          <path id="Path_30" data-name="Path 30" stroke="#f99c0f" d="M7.477,18.954h9.541a.477.477,0,1,0,0-.954H7.477a.477.477,0,1,0,0,.954Z" transform="translate(-7 -18)"/>
        </g>
      </g>
      <g id="Group_50" data-name="Group 50" transform="translate(14.342 16.219)">
        <g id="Group_49" data-name="Group 49">
          <path id="Path_31" stroke="#f99c0f" data-name="Path 31" d="M19.477,18.954h2.862a.477.477,0,1,0,0-.954H19.477a.477.477,0,1,0,0,.954Z" transform="translate(-19 -18)"/>
        </g>
      </g>
      <g id="Group_52" data-name="Group 52" transform="translate(12.434 13.403)">
        <g id="Group_51" data-name="Group 51">
          <path id="Path_32" stroke="#f99c0f" data-name="Path 32" d="M17.477,14.954h4.77a.477.477,0,1,0,0-.954h-4.77a.477.477,0,1,0,0,.954Z" transform="translate(-17 -14)"/>
        </g>
      </g>
      <g id="Group_54" data-name="Group 54" transform="translate(4.801 8.587)">
        <g id="Group_53" data-name="Group 53">
          <path id="Path_33" stroke="#f99c0f" data-name="Path 33" d="M9.477,10.954h12.4a.477.477,0,1,0,0-.954H9.477a.477.477,0,1,0,0,.954Z" transform="translate(-9 -10)"/>
        </g>
      </g>
    </g>
  </g>
</svg>
