<svg viewBox="0 0 64 64" xml:space="preserve" xmlns="http://www.w3.org/2000/svg"><g fill="none" stroke="#23c623" stroke-width="2" stroke-linecap="round" stroke-linejoin="round" stroke-miterlimit="10" id="Layer_2" class="stroke-000000"><path d="M2.6 25.9c.7-3.2 1.8-6.2 3.4-8.9M16.8 6.1C21.2 3.5 26.4 2 32 2c16.6 0 30 13.4 30 30S48.6 62 32 62C16.3 62 3.5 50 2.1 34.7"></path><path d="M51.3 40.3C48.1 47.7 40.7 53 32 53c-11.6 0-21-9.4-21-21s9.4-21 21-21c8.3 0 15.5 4.8 18.9 11.8M52.6 28c.2 1.3.4 2.6.4 4 0 1.9-.2 3.7-.7 5.4"></path><path d="M41.8 22.2 32 32v7.8"></path></g></svg>