<?xml version="1.0" ?><svg id="Layer_1" style="enable-background:new 0 0 32 32;" version="1.1" viewBox="0 0 32 32" xml:space="preserve" xmlns="http://www.w3.org/2000/svg" xmlns:xlink="http://www.w3.org/1999/xlink"><g><g><path d="M16,28C9.0439453,28,2.7900391,23.4306641,0.0668945,16.359375c-0.0893555-0.2314453-0.0893555-0.4873047,0-0.71875    C2.7900391,8.5693359,9.0439453,4,16,4s13.2099609,4.5693359,15.9331055,11.640625    c0.0893555,0.2314453,0.0893555,0.4873047,0,0.71875C29.2099609,23.4306641,22.9560547,28,16,28z M2.0761719,16    C4.5683594,22.0878906,9.9956055,26,16,26s11.4316406-3.9121094,13.9238281-10C27.4316406,9.9121094,22.0043945,6,16,6    S4.5683594,9.9121094,2.0761719,16z"/></g><g><path d="M16,10c-3.3137207,0-6,2.6862793-6,6s2.6862793,6,6,6s6-2.6862793,6-6S19.3137207,10,16,10z M14,16.21875    c-1.1045532,0-2-0.8954468-2-2c0-1.1046143,0.8954468-2,2-2s2,0.8953857,2,2C16,15.3233032,15.1045532,16.21875,14,16.21875z"/></g></g></svg>